<svg width="16" height="16" viewBox="0 0 16 16" fill="none" xmlns="http://www.w3.org/2000/svg">
<rect width="16" height="16" rx="2" fill="#1E90FF"/>
<path d="M7.85227 12H4.75852V3.27273H7.87784C8.75568 3.27273 9.51136 3.44744 10.1449 3.79688C10.7784 4.14347 11.2656 4.64205 11.6065 5.29261C11.9503 5.94318 12.1222 6.72159 12.1222 7.62784C12.1222 8.53693 11.9503 9.31818 11.6065 9.97159C11.2656 10.625 10.7756 11.1264 10.1364 11.4759C9.5 11.8253 8.73864 12 7.85227 12ZM6.60369 10.419H7.77557C8.32102 10.419 8.77983 10.3224 9.15199 10.1293C9.52699 9.93324 9.80824 9.63068 9.99574 9.22159C10.1861 8.80966 10.2812 8.27841 10.2812 7.62784C10.2812 6.98295 10.1861 6.45597 9.99574 6.04688C9.80824 5.63778 9.52841 5.33665 9.15625 5.14347C8.78409 4.95028 8.32528 4.85369 7.77983 4.85369H6.60369V10.419Z" fill="white"/>
</svg>
