<svg width="173" height="39" viewBox="0 0 173 39" fill="none" xmlns="http://www.w3.org/2000/svg">
<path d="M62.316 29H58.676L50.434 16.546V29H46.794V10.826H50.434L58.676 23.306V10.826H62.316V29ZM72.3091 29.234C70.9225 29.234 69.6745 28.9307 68.5651 28.324C67.4558 27.7 66.5805 26.8247 65.9391 25.698C65.3151 24.5713 65.0031 23.2713 65.0031 21.798C65.0031 20.3247 65.3238 19.0247 65.9651 17.898C66.6238 16.7713 67.5165 15.9047 68.6431 15.298C69.7698 14.674 71.0265 14.362 72.4131 14.362C73.7998 14.362 75.0565 14.674 76.1831 15.298C77.3098 15.9047 78.1938 16.7713 78.8351 17.898C79.4938 19.0247 79.8231 20.3247 79.8231 21.798C79.8231 23.2713 79.4851 24.5713 78.8091 25.698C78.1505 26.8247 77.2491 27.7 76.1051 28.324C74.9785 28.9307 73.7131 29.234 72.3091 29.234ZM72.3091 26.062C72.9678 26.062 73.5831 25.906 74.1551 25.594C74.7445 25.2647 75.2125 24.7793 75.5591 24.138C75.9058 23.4967 76.0791 22.7167 76.0791 21.798C76.0791 20.4287 75.7151 19.38 74.9871 18.652C74.2765 17.9067 73.4011 17.534 72.3611 17.534C71.3211 17.534 70.4458 17.9067 69.7351 18.652C69.0418 19.38 68.6951 20.4287 68.6951 21.798C68.6951 23.1673 69.0331 24.2247 69.7091 24.97C70.4025 25.698 71.2691 26.062 72.3091 26.062ZM86.7312 17.586V24.554C86.7312 25.0393 86.8439 25.3947 87.0692 25.62C87.3119 25.828 87.7106 25.932 88.2652 25.932H89.9552V29H87.6672C84.5992 29 83.0652 27.5093 83.0652 24.528V17.586H81.3492V14.596H83.0652V11.034H86.7312V14.596H89.9552V17.586H86.7312ZM105.963 21.486C105.963 22.006 105.929 22.474 105.859 22.89H95.3293C95.416 23.93 95.78 24.7447 96.4213 25.334C97.0626 25.9233 97.8513 26.218 98.7873 26.218C100.139 26.218 101.101 25.6373 101.673 24.476H105.599C105.183 25.8627 104.386 27.0067 103.207 27.908C102.029 28.792 100.581 29.234 98.8653 29.234C97.4786 29.234 96.2306 28.9307 95.1213 28.324C94.0293 27.7 93.1713 26.8247 92.5473 25.698C91.9406 24.5713 91.6373 23.2713 91.6373 21.798C91.6373 20.3073 91.9406 18.9987 92.5473 17.872C93.154 16.7453 94.0033 15.8787 95.0953 15.272C96.1873 14.6653 97.444 14.362 98.8653 14.362C100.235 14.362 101.457 14.6567 102.531 15.246C103.623 15.8353 104.464 16.676 105.053 17.768C105.66 18.8427 105.963 20.082 105.963 21.486ZM102.193 20.446C102.176 19.51 101.838 18.7647 101.179 18.21C100.521 17.638 99.7146 17.352 98.7613 17.352C97.86 17.352 97.0973 17.6293 96.4733 18.184C95.8666 18.7213 95.494 19.4753 95.3553 20.446H102.193ZM114.964 10.852C116.871 10.852 118.544 11.2247 119.982 11.97C121.438 12.7153 122.556 13.7813 123.336 15.168C124.134 16.5373 124.532 18.132 124.532 19.952C124.532 21.772 124.134 23.3667 123.336 24.736C122.556 26.088 121.438 27.1367 119.982 27.882C118.544 28.6273 116.871 29 114.964 29H108.62V10.852H114.964ZM114.834 25.906C116.741 25.906 118.214 25.386 119.254 24.346C120.294 23.306 120.814 21.8413 120.814 19.952C120.814 18.0627 120.294 16.5893 119.254 15.532C118.214 14.4573 116.741 13.92 114.834 13.92H112.26V25.906H114.834ZM133.653 29.234C132.266 29.234 131.018 28.9307 129.909 28.324C128.8 27.7 127.924 26.8247 127.283 25.698C126.659 24.5713 126.347 23.2713 126.347 21.798C126.347 20.3247 126.668 19.0247 127.309 17.898C127.968 16.7713 128.86 15.9047 129.987 15.298C131.114 14.674 132.37 14.362 133.757 14.362C135.144 14.362 136.4 14.674 137.527 15.298C138.654 15.9047 139.538 16.7713 140.179 17.898C140.838 19.0247 141.167 20.3247 141.167 21.798C141.167 23.2713 140.829 24.5713 140.153 25.698C139.494 26.8247 138.593 27.7 137.449 28.324C136.322 28.9307 135.057 29.234 133.653 29.234ZM133.653 26.062C134.312 26.062 134.927 25.906 135.499 25.594C136.088 25.2647 136.556 24.7793 136.903 24.138C137.25 23.4967 137.423 22.7167 137.423 21.798C137.423 20.4287 137.059 19.38 136.331 18.652C135.62 17.9067 134.745 17.534 133.705 17.534C132.665 17.534 131.79 17.9067 131.079 18.652C130.386 19.38 130.039 20.4287 130.039 21.798C130.039 23.1673 130.377 24.2247 131.053 24.97C131.746 25.698 132.613 26.062 133.653 26.062ZM142.901 21.798C142.901 20.3073 143.204 19.0073 143.811 17.898C144.418 16.7713 145.258 15.9047 146.333 15.298C147.408 14.674 148.638 14.362 150.025 14.362C151.81 14.362 153.284 14.8127 154.445 15.714C155.624 16.598 156.412 17.846 156.811 19.458H152.885C152.677 18.834 152.322 18.3487 151.819 18.002C151.334 17.638 150.727 17.456 149.999 17.456C148.959 17.456 148.136 17.8373 147.529 18.6C146.922 19.3453 146.619 20.4113 146.619 21.798C146.619 23.1673 146.922 24.2333 147.529 24.996C148.136 25.7413 148.959 26.114 149.999 26.114C151.472 26.114 152.434 25.4553 152.885 24.138H156.811C156.412 25.698 155.624 26.9373 154.445 27.856C153.266 28.7747 151.793 29.234 150.025 29.234C148.638 29.234 147.408 28.9307 146.333 28.324C145.258 27.7 144.418 26.8333 143.811 25.724C143.204 24.5973 142.901 23.2887 142.901 21.798ZM168.006 29L163.118 22.864V29H159.478V9.76H163.118V20.706L167.954 14.596H172.686L166.342 21.824L172.738 29H168.006Z" fill="#303042"/>
<rect y="2" width="35" height="35" rx="8" fill="#1E90FF"/>
<path d="M16.45 10.748C18.374 10.748 20.0553 11.1293 21.494 11.892C22.9327 12.6547 24.042 13.7293 24.822 15.116C25.6193 16.4853 26.018 18.0713 26.018 19.874C26.018 21.6593 25.6193 23.2453 24.822 24.632C24.042 26.0187 22.924 27.0933 21.468 27.856C20.0293 28.6187 18.3567 29 16.45 29H9.612V10.748H16.45ZM16.164 25.152C17.8453 25.152 19.154 24.6927 20.09 23.774C21.026 22.8553 21.494 21.5553 21.494 19.874C21.494 18.1927 21.026 16.884 20.09 15.948C19.154 15.012 17.8453 14.544 16.164 14.544H14.058V25.152H16.164Z" fill="#fff"/>
</svg>
