<svg width="164" height="40" viewBox="0 0 164 40" fill="none" xmlns="http://www.w3.org/2000/svg">
<rect width="40" height="40" rx="10" fill="#B8B8B8"/>
<path d="M20.2727 31H12.0227V7.72727H20.3409C22.6818 7.72727 24.697 8.19318 26.3864 9.125C28.0758 10.0492 29.375 11.3788 30.2841 13.1136C31.2008 14.8485 31.6591 16.9242 31.6591 19.3409C31.6591 21.7652 31.2008 23.8485 30.2841 25.5909C29.375 27.3333 28.0682 28.6705 26.3636 29.6023C24.6667 30.5341 22.6364 31 20.2727 31ZM16.9432 26.7841H20.0682C21.5227 26.7841 22.7462 26.5265 23.7386 26.0114C24.7386 25.4886 25.4886 24.6818 25.9886 23.5909C26.4962 22.4924 26.75 21.0758 26.75 19.3409C26.75 17.6212 26.4962 16.2159 25.9886 15.125C25.4886 14.0341 24.7424 13.2311 23.75 12.7159C22.7576 12.2008 21.5341 11.9432 20.0795 11.9432H16.9432V26.7841Z" fill="white"/>
<path d="M63.1165 11.5455V29H59.929L52.3352 18.0142H52.2074V29H48.517V11.5455H51.7557L59.2898 22.5227H59.4432V11.5455H63.1165ZM72.0121 29.2557C70.6882 29.2557 69.5433 28.9744 68.5774 28.4119C67.6172 27.8437 66.8757 27.054 66.353 26.0426C65.8303 25.0256 65.5689 23.8466 65.5689 22.5057C65.5689 21.1534 65.8303 19.9716 66.353 18.9602C66.8757 17.9432 67.6172 17.1534 68.5774 16.5909C69.5433 16.0227 70.6882 15.7386 72.0121 15.7386C73.3359 15.7386 74.478 16.0227 75.4382 16.5909C76.4041 17.1534 77.1484 17.9432 77.6712 18.9602C78.1939 19.9716 78.4553 21.1534 78.4553 22.5057C78.4553 23.8466 78.1939 25.0256 77.6712 26.0426C77.1484 27.054 76.4041 27.8437 75.4382 28.4119C74.478 28.9744 73.3359 29.2557 72.0121 29.2557ZM72.0291 26.4432C72.6314 26.4432 73.1342 26.2727 73.5376 25.9318C73.9411 25.5852 74.245 25.1136 74.4496 24.517C74.6598 23.9205 74.7649 23.2415 74.7649 22.4801C74.7649 21.7188 74.6598 21.0398 74.4496 20.4432C74.245 19.8466 73.9411 19.375 73.5376 19.0284C73.1342 18.6818 72.6314 18.5085 72.0291 18.5085C71.4212 18.5085 70.9098 18.6818 70.495 19.0284C70.0859 19.375 69.7763 19.8466 69.5661 20.4432C69.3615 21.0398 69.2592 21.7188 69.2592 22.4801C69.2592 23.2415 69.3615 23.9205 69.5661 24.517C69.7763 25.1136 70.0859 25.5852 70.495 25.9318C70.9098 26.2727 71.4212 26.4432 72.0291 26.4432ZM87.7791 15.9091V18.6364H79.8956V15.9091H87.7791ZM81.6854 12.7727H85.3161V24.9773C85.3161 25.3125 85.3672 25.5739 85.4695 25.7614C85.5717 25.9432 85.7138 26.071 85.8956 26.1449C86.0831 26.2187 86.299 26.2557 86.5433 26.2557C86.7138 26.2557 86.8842 26.2415 87.0547 26.2131C87.2251 26.179 87.3558 26.1534 87.4467 26.1364L88.0178 28.8381C87.8359 28.8949 87.5803 28.9602 87.2507 29.0341C86.9212 29.1136 86.5206 29.1619 86.049 29.179C85.174 29.2131 84.407 29.0966 83.7479 28.8295C83.0945 28.5625 82.5859 28.1477 82.2223 27.5852C81.8587 27.0227 81.6797 26.3125 81.6854 25.4545V12.7727ZM95.9695 29.2557C94.6229 29.2557 93.4638 28.983 92.4922 28.4375C91.5263 27.8864 90.782 27.108 90.2592 26.1023C89.7365 25.0909 89.4751 23.8949 89.4751 22.5142C89.4751 21.1676 89.7365 19.9858 90.2592 18.9688C90.782 17.9517 91.5178 17.1591 92.4666 16.5909C93.4212 16.0227 94.5405 15.7386 95.8246 15.7386C96.6882 15.7386 97.4922 15.8778 98.2365 16.1562C98.9865 16.429 99.6399 16.8409 100.197 17.392C100.759 17.9432 101.197 18.6364 101.509 19.4716C101.822 20.3011 101.978 21.2727 101.978 22.3864V23.3835H90.924V21.1335H98.5604C98.5604 20.6108 98.4467 20.1477 98.2195 19.7443C97.9922 19.3409 97.6768 19.0256 97.2734 18.7983C96.8757 18.5653 96.4126 18.4489 95.8842 18.4489C95.3331 18.4489 94.8445 18.5767 94.4183 18.8324C93.9979 19.0824 93.6683 19.4205 93.4297 19.8466C93.1911 20.267 93.0689 20.7358 93.0632 21.2528V23.392C93.0632 24.0398 93.1825 24.5994 93.4212 25.071C93.6655 25.5426 94.0092 25.9062 94.4524 26.1619C94.8956 26.4176 95.4212 26.5455 96.0291 26.5455C96.4325 26.5455 96.8018 26.4886 97.1371 26.375C97.4723 26.2614 97.7592 26.0909 97.9979 25.8636C98.2365 25.6364 98.4183 25.358 98.5433 25.0284L101.901 25.25C101.731 26.0568 101.381 26.7614 100.853 27.3636C100.33 27.9602 99.6541 28.4261 98.8246 28.7614C98.0007 29.0909 97.049 29.2557 95.9695 29.2557ZM110.603 29H104.415V11.5455H110.654C112.41 11.5455 113.921 11.8949 115.188 12.5938C116.455 13.2869 117.43 14.2841 118.112 15.5852C118.799 16.8864 119.143 18.4432 119.143 20.2557C119.143 22.0739 118.799 23.6364 118.112 24.9432C117.43 26.25 116.45 27.2528 115.171 27.9517C113.898 28.6506 112.376 29 110.603 29ZM108.106 25.8381H110.45C111.54 25.8381 112.458 25.6449 113.202 25.2585C113.952 24.8665 114.515 24.2614 114.89 23.4432C115.271 22.6193 115.461 21.5568 115.461 20.2557C115.461 18.9659 115.271 17.9119 114.89 17.0938C114.515 16.2756 113.955 15.6733 113.211 15.2869C112.467 14.9006 111.549 14.7074 110.458 14.7074H108.106V25.8381ZM127.723 29.2557C126.399 29.2557 125.254 28.9744 124.288 28.4119C123.328 27.8437 122.587 27.054 122.064 26.0426C121.541 25.0256 121.28 23.8466 121.28 22.5057C121.28 21.1534 121.541 19.9716 122.064 18.9602C122.587 17.9432 123.328 17.1534 124.288 16.5909C125.254 16.0227 126.399 15.7386 127.723 15.7386C129.047 15.7386 130.189 16.0227 131.149 16.5909C132.115 17.1534 132.859 17.9432 133.382 18.9602C133.905 19.9716 134.166 21.1534 134.166 22.5057C134.166 23.8466 133.905 25.0256 133.382 26.0426C132.859 27.054 132.115 27.8437 131.149 28.4119C130.189 28.9744 129.047 29.2557 127.723 29.2557ZM127.74 26.4432C128.342 26.4432 128.845 26.2727 129.249 25.9318C129.652 25.5852 129.956 25.1136 130.161 24.517C130.371 23.9205 130.476 23.2415 130.476 22.4801C130.476 21.7188 130.371 21.0398 130.161 20.4432C129.956 19.8466 129.652 19.375 129.249 19.0284C128.845 18.6818 128.342 18.5085 127.74 18.5085C127.132 18.5085 126.621 18.6818 126.206 19.0284C125.797 19.375 125.487 19.8466 125.277 20.4432C125.072 21.0398 124.97 21.7188 124.97 22.4801C124.97 23.2415 125.072 23.9205 125.277 24.517C125.487 25.1136 125.797 25.5852 126.206 25.9318C126.621 26.2727 127.132 26.4432 127.74 26.4432ZM142.442 29.2557C141.101 29.2557 139.947 28.9716 138.982 28.4034C138.021 27.8295 137.283 27.0341 136.766 26.017C136.254 25 135.999 23.8295 135.999 22.5057C135.999 21.1648 136.257 19.9886 136.774 18.9773C137.297 17.9602 138.038 17.1676 138.999 16.5994C139.959 16.0256 141.101 15.7386 142.425 15.7386C143.567 15.7386 144.567 15.946 145.425 16.3608C146.283 16.7756 146.962 17.358 147.462 18.108C147.962 18.858 148.237 19.7386 148.288 20.75H144.862C144.766 20.0966 144.51 19.571 144.095 19.1733C143.686 18.7699 143.149 18.5682 142.484 18.5682C141.922 18.5682 141.43 18.7216 141.01 19.0284C140.595 19.3295 140.271 19.7699 140.038 20.3494C139.805 20.929 139.689 21.6307 139.689 22.4545C139.689 23.2898 139.803 24 140.03 24.5852C140.263 25.1705 140.589 25.6165 141.01 25.9233C141.43 26.2301 141.922 26.3835 142.484 26.3835C142.899 26.3835 143.271 26.2983 143.601 26.1278C143.936 25.9574 144.212 25.7102 144.428 25.3864C144.649 25.0568 144.794 24.6619 144.862 24.2017H148.288C148.232 25.2017 147.959 26.0824 147.47 26.8438C146.987 27.5994 146.32 28.1903 145.467 28.6165C144.615 29.0426 143.607 29.2557 142.442 29.2557ZM153.903 25.233L153.911 20.8778H154.44L158.633 15.9091H162.8L157.167 22.4886H156.306L153.903 25.233ZM150.613 29V11.5455H154.244V29H150.613ZM158.795 29L154.942 23.2983L157.363 20.733L163.048 29H158.795Z" fill="#C2C2C2"/>
</svg>
